<svg xmlns="http://www.w3.org/2000/svg" width="15" height="15.448" viewBox="0 0 15 15.448">
  <defs>
    <style>
      .cls-1 {
        fill: #179f7a;
      }

      .cls-2 {
        fill: #fff;
      }
    </style>
  </defs>
  <g id="组_1131" data-name="组 1131" transform="translate(-711 -1121.366)">
    <g id="出库单" transform="translate(680.28 1101.91)">
      <path id="路径_1" data-name="路径 1" class="cls-1" d="M190.647,23.291h-6.931a.421.421,0,0,1,0-.841h6.931a.421.421,0,1,1,0,.841Zm0,3.2h-6.931a.421.421,0,0,1,0-.841h6.931a.421.421,0,1,1,0,.841Z" transform="translate(-150.07 0.787)"/>
      <path id="路径_3" data-name="路径 3" class="cls-1" d="M43.092,34.9H31.141a.408.408,0,0,1-.421-.4V19.86a.408.408,0,0,1,.421-.4H43.092a.408.408,0,0,1,.421.4V34.5A.408.408,0,0,1,43.092,34.9ZM31.561,34.1H42.672V20.264H31.561V34.1Z"/>
      <ellipse id="椭圆_47" data-name="椭圆 47" class="cls-2" cx="4" cy="3.5" rx="4" ry="3.5" transform="translate(37.72 27.09)"/>
      <path id="路径_2909" data-name="路径 2909" class="cls-1" d="M187.446,23.291h-3.912c-.133,0-.237-.185-.237-.421s.1-.421.237-.421h3.912c.133,0,.237.185.237.421S187.579,23.291,187.446,23.291Z" transform="translate(-150.07 6.58)"/>
    </g>
    <g id="组_1130" data-name="组 1130" transform="translate(719.354 1130.281)">
      <path id="路径_2907" data-name="路径 2907" class="cls-1" d="M185.18,31.088h4.9a.421.421,0,1,0,0-.841h-4.9a.421.421,0,0,0,0,.841Z" transform="translate(-184.759 -28.372)"/>
      <path id="路径_2908" data-name="路径 2908" class="cls-1" d="M235.309,566.76a.4.4,0,0,0,.294-.126l1.859-1.867a.421.421,0,0,0,0-.589L235.6,562.3a.422.422,0,0,0-.6.6l1.564,1.581-1.564,1.573a.432.432,0,0,0,0,.6A.494.494,0,0,0,235.309,566.76Z" transform="translate(-231.221 -562.176)"/>
    </g>
  </g>
</svg>
