<svg xmlns="http://www.w3.org/2000/svg" width="14.047" height="15.5" viewBox="0 0 14.047 15.5">
  <defs>
    <style>
      .cls-1 {
        fill: #179f7a;
      }
    </style>
  </defs>
  <g id="订单" transform="translate(-69.818 0)">
    <path id="路径_2910" data-name="路径 2910" class="cls-1" d="M262.86,744.73h-6.331c-.29,0-.531.151-.531.338s.234.338.531.338h6.331c.29,0,.531-.151.531-.338S263.15,744.73,262.86,744.73Z" transform="translate(-183.222 -733.435)"/>
    <path id="路径_2911" data-name="路径 2911" class="cls-1" d="M79.5,0V.017c-.067,0-.358-.023-1.09-.016H72A2.113,2.113,0,0,0,69.818,2.04V13.462A2.113,2.113,0,0,0,72,15.5h9.685a2.113,2.113,0,0,0,2.181-2.038V4.077L79.5,0Zm3.3,4.108-2.222-.031h.075c-.507,0-1.223-.458-1.223-1.015L79.421.955l3.387,3.154Zm.117,9.5a1.085,1.085,0,0,1-1.115,1.046H71.873a1.08,1.08,0,0,1-1.115-1.046V1.9A1.085,1.085,0,0,1,71.873.854h6.558q-.009,1.042.016,2.085a2.161,2.161,0,0,0,2.239,2.085h2.239v8.586Z" transform="translate(0 0)"/>
    <path id="路径_2912" data-name="路径 2912" class="cls-1" d="M262.86,328.553h-6.331c-.29,0-.531.145-.531.325s.234.326.531.326h6.331c.29,0,.531-.145.531-.326S263.15,328.553,262.86,328.553Zm-2.6-2.728h-3.933a.325.325,0,1,0,0,.651h3.934a.325.325,0,1,0,0-.651Z" transform="translate(-183.222 -320.834)"/>
  </g>
</svg>
